<svg xmlns="http://www.w3.org/2000/svg" viewBox="0 0 1000 750" role="img">
  <defs>
    <linearGradient id="caisse" x1="0" y1="0" x2="0" y2="1">
      <stop offset="0" stop-color="#eceae5"/>
      <stop offset="1" stop-color="#cbc7bf"/>
    </linearGradient>
    <linearGradient id="fondo" x1="0" y1="0" x2="0" y2="1">
      <stop offset="0" stop-color="#ffffff"/>
      <stop offset="1" stop-color="#ffffff"/>
    </linearGradient>
  </defs>
  <rect width="1000" height="750" fill="url(#fondo)"/>
  <line x1="0" y1="630" x2="1000" y2="630" stroke="#e5e7eb" stroke-width="3"/>
  <g transform="translate(290.4 630) scale(1.3353)">
  <ellipse cx="239" cy="8" rx="329" ry="14" fill="#001424" opacity="0.13"/>
  <g fill="#6b7280">
    <path d="M 6 -114 L -150 -74 L -150 -58 L 6 -92 Z"/>
    <path d="M 6 -88 L -116 -60 L -116 -48 L 6 -76 Z" opacity="0.75"/>
  </g>
  <rect x="-180" y="-88" width="38" height="32" rx="9" fill="#001424"/>
  <rect x="-66" y="-78" width="13" height="56" rx="5" fill="#6b7280"/><circle cx="-59" cy="-16" r="17" fill="#001424"/>
  <rect x="-6" y="-84" width="490" height="16" rx="4" fill="#001424" opacity="0.85"/>
  <path d="M 0 -84 L 14 -284.36 Q 22 -354.36 84 -368.36 Q 106 -380.36 130 -380.36 L 460 -380.36 Q 478 -380.36 478 -360.36 L 478 -84 Z" fill="url(#caisse)" stroke="#a6a199" stroke-width="3"/>
  <path d="M 3 -140.3084 L 476 -140.3084 L 476 -84 L 3 -84 Z" fill="#e3000e"/><line x1="3" y1="-140.3084" x2="476" y2="-140.3084" stroke="#001424" stroke-width="2" opacity="0.3"/>
  <path d="M 94 -394.36 L 490 -394.36 L 490 -374.36 L 80 -372.36 Z" fill="#8d887f"/>
  <rect x="78" y="-354.36" width="46" height="196" rx="8" fill="#a6a199" opacity="0.45" stroke="#8d887f" stroke-width="2"/><rect x="87" y="-340.36" width="28" height="34" rx="5" fill="#001424" opacity="0.6"/>
  <rect x="142.0" y="-340.4" width="121.0" height="78.0" rx="11" fill="#001424" opacity="0.74"/><rect x="289.0" y="-340.4" width="121.0" height="78.0" rx="11" fill="#001424" opacity="0.74"/>
  <g transform="translate(318.7 -336.5) scale(0.733)" fill="#ffffff" opacity="0.5"><path d="M10 44 L14 31 Q19 19 31 15 L33 4 L42 14 L50 3 L55 17 Q67 28 71 47 L84 96 L60 96 L49 60 Q40 51 25 49 Q13 48 10 44 Z"/></g>
  <line x1="473" y1="-366.36" x2="473" y2="-140.3084" stroke="#8d887f" stroke-width="4"/><rect x="454" y="-214.3084" width="14" height="30" rx="4" fill="#8d887f"/>
  <g>
    <path d="M 180.12 -72 Q 258.12 -138 336.12 -72 Z" fill="#8d887f"/>
    <circle cx="258" cy="-58" r="58" fill="#001424"/>
    <circle cx="258" cy="-58" r="39" fill="#6b7280" opacity="0.7"/>
    <circle cx="258" cy="-58" r="11" fill="#ffffff" opacity="0.85"/>
  </g>
  </g>
</svg>
