<svg xmlns="http://www.w3.org/2000/svg" viewBox="0 0 1920 1080" role="img">
  <defs>
    <linearGradient id="caja" x1="0" y1="0" x2="0" y2="1">
      <stop offset="0" stop-color="#eceae5"/>
      <stop offset="1" stop-color="#cbc7bf"/>
    </linearGradient>
    <linearGradient id="cielo" x1="0" y1="0" x2="0" y2="1">
      <stop offset="0" stop-color="#0d2c46"/>
      <stop offset="0.55" stop-color="#001c30"/>
      <stop offset="1" stop-color="#001424"/>
    </linearGradient>
  </defs>
  <rect width="1920" height="1080" fill="url(#cielo)"/>

  <!-- Deux collines très basses : assez pour suggérer la campagne, assez peu
       pour concurrencer le texte posé par-dessus. -->
  <path d="M0 777.6 Q 480 680.4 980 766.8 T 1920 734.4000000000001 L1920 1080 L0 1080 Z" fill="#242424" opacity="0.45"/>
  <path d="M0 874.8000000000001 Q 620 799.2 1240 864 T 1920 842.4 L1920 1080 L0 1080 Z" fill="#242424" opacity="0.8"/>

  <g transform="translate(931.5 864) scale(1.3348)">
  <ellipse cx="276" cy="8" rx="366" ry="14" fill="#001424" opacity="0.13"/>
  <g fill="#6b7280">
    <path d="M 6 -114 L -150 -74 L -150 -58 L 6 -92 Z"/>
    <path d="M 6 -88 L -116 -60 L -116 -48 L 6 -76 Z" opacity="0.75"/>
  </g>
  <rect x="-180" y="-88" width="38" height="32" rx="9" fill="#001424"/>
  <rect x="-66" y="-78" width="13" height="56" rx="5" fill="#6b7280"/><circle cx="-59" cy="-16" r="17" fill="#001424"/>
  <rect x="-6" y="-84" width="564" height="16" rx="4" fill="#001424" opacity="0.85"/>
  <path d="M 0 -84 L 14 -330.24 Q 22 -400.24 84 -414.24 Q 106 -426.24 130 -426.24 L 534 -426.24 Q 552 -426.24 552 -406.24 L 552 -84 Z" fill="url(#caja)" stroke="#a6a199" stroke-width="3"/>
  <path d="M 3 -149.0256 L 550 -149.0256 L 550 -84 L 3 -84 Z" fill="#e3000e"/><line x1="3" y1="-149.0256" x2="550" y2="-149.0256" stroke="#001424" stroke-width="2" opacity="0.3"/>
  <path d="M 94 -440.24 L 564 -440.24 L 564 -420.24 L 80 -418.24 Z" fill="#8d887f"/>
  <rect x="78" y="-400.24" width="46" height="233" rx="8" fill="#a6a199" opacity="0.45" stroke="#8d887f" stroke-width="2"/><rect x="87" y="-386.24" width="28" height="34" rx="5" fill="#001424" opacity="0.6"/>
  <rect x="142.0" y="-386.2" width="96.7" height="78.0" rx="11" fill="#001424" opacity="0.74"/><rect x="264.7" y="-386.2" width="96.7" height="78.0" rx="11" fill="#001424" opacity="0.74"/><rect x="387.3" y="-386.2" width="96.7" height="78.0" rx="11" fill="#001424" opacity="0.74"/>
  <g transform="translate(404.9 -382.3) scale(0.733)" fill="#ffffff" opacity="0.5"><path d="M10 44 L14 31 Q19 19 31 15 L33 4 L42 14 L50 3 L55 17 Q67 28 71 47 L84 96 L60 96 L49 60 Q40 51 25 49 Q13 48 10 44 Z"/></g>
  <line x1="547" y1="-412.24" x2="547" y2="-149.0256" stroke="#8d887f" stroke-width="4"/><rect x="528" y="-223.0256" width="14" height="30" rx="4" fill="#8d887f"/>
  <g>
    <path d="M 152.08000000000004 -72 Q 230.08000000000004 -138 308.08000000000004 -72 Z" fill="#8d887f"/>
    <circle cx="230" cy="-58" r="58" fill="#001424"/>
    <circle cx="230" cy="-58" r="39" fill="#6b7280" opacity="0.7"/>
    <circle cx="230" cy="-58" r="11" fill="#ffffff" opacity="0.85"/>
  </g><g>
    <path d="M 288.08000000000004 -72 Q 366.08000000000004 -138 444.08000000000004 -72 Z" fill="#8d887f"/>
    <circle cx="366" cy="-58" r="58" fill="#001424"/>
    <circle cx="366" cy="-58" r="39" fill="#6b7280" opacity="0.7"/>
    <circle cx="366" cy="-58" r="11" fill="#ffffff" opacity="0.85"/>
  </g>
  </g>
</svg>
